<mxfile host="Electron" agent="Mozilla/5.0 (Windows NT 10.0; Win64; x64) AppleWebKit/537.36 (KHTML, like Gecko) draw.io/26.1.1 Chrome/132.0.6834.210 Electron/34.3.3 Safari/537.36" version="26.1.1">
  <diagram name="Page-1" id="Pky_TOVWznoUA1scNFFX">
    <mxGraphModel dx="995" dy="548" grid="1" gridSize="10" guides="1" tooltips="1" connect="1" arrows="1" fold="1" page="1" pageScale="1" pageWidth="850" pageHeight="1100" math="0" shadow="0">
      <root>
        <mxCell id="0" />
        <mxCell id="1" parent="0" />
        <mxCell id="8AGuU69_h8K9wH-vG9Zy-5" value="" style="html=1;whiteSpace=wrap;" parent="1" vertex="1">
          <mxGeometry x="350" y="100" width="400" height="1900" as="geometry" />
        </mxCell>
        <mxCell id="8AGuU69_h8K9wH-vG9Zy-1" value="Artist" style="shape=umlActor;verticalLabelPosition=bottom;verticalAlign=top;html=1;outlineConnect=0;" parent="1" vertex="1">
          <mxGeometry x="260" y="140" width="30" height="60" as="geometry" />
        </mxCell>
        <mxCell id="8AGuU69_h8K9wH-vG9Zy-2" value="Buyer" style="shape=umlActor;verticalLabelPosition=bottom;verticalAlign=top;html=1;outlineConnect=0;" parent="1" vertex="1">
          <mxGeometry x="260" y="860" width="30" height="60" as="geometry" />
        </mxCell>
        <mxCell id="8AGuU69_h8K9wH-vG9Zy-3" value="&lt;div&gt;Collector&lt;/div&gt;" style="shape=umlActor;verticalLabelPosition=bottom;verticalAlign=top;html=1;outlineConnect=0;" parent="1" vertex="1">
          <mxGeometry x="260" y="1610" width="30" height="60" as="geometry" />
        </mxCell>
        <mxCell id="8AGuU69_h8K9wH-vG9Zy-4" value="Dealer&lt;div&gt;&lt;br&gt;&lt;/div&gt;" style="shape=umlActor;verticalLabelPosition=bottom;verticalAlign=top;html=1;outlineConnect=0;" parent="1" vertex="1">
          <mxGeometry x="260" y="1400" width="30" height="60" as="geometry" />
        </mxCell>
        <mxCell id="8AGuU69_h8K9wH-vG9Zy-6" value="Art Site" style="text;html=1;align=center;verticalAlign=middle;resizable=0;points=[];autosize=1;strokeColor=none;fillColor=none;" parent="1" vertex="1">
          <mxGeometry x="480" y="100" width="60" height="30" as="geometry" />
        </mxCell>
        <mxCell id="8AGuU69_h8K9wH-vG9Zy-8" value="upload artwork" style="ellipse;whiteSpace=wrap;html=1;" parent="1" vertex="1">
          <mxGeometry x="385" y="145" width="80" height="50" as="geometry" />
        </mxCell>
        <mxCell id="8AGuU69_h8K9wH-vG9Zy-11" value="upload main photo" style="ellipse;whiteSpace=wrap;html=1;" parent="1" vertex="1">
          <mxGeometry x="640" y="170" width="80" height="50" as="geometry" />
        </mxCell>
        <mxCell id="8AGuU69_h8K9wH-vG9Zy-12" value="upload 3d model" style="ellipse;whiteSpace=wrap;html=1;" parent="1" vertex="1">
          <mxGeometry x="630" y="280" width="80" height="50" as="geometry" />
        </mxCell>
        <mxCell id="8AGuU69_h8K9wH-vG9Zy-19" value="" style="endArrow=block;dashed=1;endFill=0;endSize=12;html=1;rounded=0;exitX=1;exitY=0.5;exitDx=0;exitDy=0;entryX=0.005;entryY=0.646;entryDx=0;entryDy=0;entryPerimeter=0;" parent="1" source="8AGuU69_h8K9wH-vG9Zy-8" target="8AGuU69_h8K9wH-vG9Zy-11" edge="1">
          <mxGeometry width="160" relative="1" as="geometry">
            <mxPoint x="475" y="180" as="sourcePoint" />
            <mxPoint x="570" y="165" as="targetPoint" />
          </mxGeometry>
        </mxCell>
        <mxCell id="8AGuU69_h8K9wH-vG9Zy-24" value="&amp;lt;&amp;lt;include&amp;gt;&amp;gt;" style="edgeLabel;html=1;align=center;verticalAlign=middle;resizable=0;points=[];" parent="8AGuU69_h8K9wH-vG9Zy-19" vertex="1" connectable="0">
          <mxGeometry x="0.1496" y="-1" relative="1" as="geometry">
            <mxPoint as="offset" />
          </mxGeometry>
        </mxCell>
        <mxCell id="8AGuU69_h8K9wH-vG9Zy-21" value="" style="endArrow=block;dashed=1;endFill=0;endSize=12;html=1;rounded=0;exitX=1;exitY=0.5;exitDx=0;exitDy=0;entryX=0;entryY=0.5;entryDx=0;entryDy=0;" parent="1" source="8AGuU69_h8K9wH-vG9Zy-8" target="8AGuU69_h8K9wH-vG9Zy-12" edge="1">
          <mxGeometry width="160" relative="1" as="geometry">
            <mxPoint x="485" y="190" as="sourcePoint" />
            <mxPoint x="580" y="175" as="targetPoint" />
          </mxGeometry>
        </mxCell>
        <mxCell id="8AGuU69_h8K9wH-vG9Zy-25" value="&amp;lt;&amp;lt;extend&amp;gt;&amp;gt;" style="edgeLabel;html=1;align=center;verticalAlign=middle;resizable=0;points=[];" parent="8AGuU69_h8K9wH-vG9Zy-21" vertex="1" connectable="0">
          <mxGeometry x="-0.0262" y="-2" relative="1" as="geometry">
            <mxPoint as="offset" />
          </mxGeometry>
        </mxCell>
        <mxCell id="8AGuU69_h8K9wH-vG9Zy-26" value="Artwork manage Service" style="shape=umlActor;verticalLabelPosition=bottom;verticalAlign=top;html=1;outlineConnect=0;" parent="1" vertex="1">
          <mxGeometry x="830" y="145" width="30" height="60" as="geometry" />
        </mxCell>
        <mxCell id="8AGuU69_h8K9wH-vG9Zy-32" value="" style="html=1;verticalAlign=bottom;endArrow=block;curved=0;rounded=0;exitX=0;exitY=0.3333333333333333;exitDx=0;exitDy=0;exitPerimeter=0;entryX=1;entryY=0.5;entryDx=0;entryDy=0;" parent="1" source="8AGuU69_h8K9wH-vG9Zy-26" edge="1">
          <mxGeometry width="80" relative="1" as="geometry">
            <mxPoint x="820" y="180" as="sourcePoint" />
            <mxPoint x="720" y="125" as="targetPoint" />
          </mxGeometry>
        </mxCell>
        <mxCell id="8AGuU69_h8K9wH-vG9Zy-33" value="" style="html=1;verticalAlign=bottom;endArrow=block;curved=0;rounded=0;exitX=0;exitY=0.3333333333333333;exitDx=0;exitDy=0;exitPerimeter=0;entryX=1;entryY=0.5;entryDx=0;entryDy=0;" parent="1" source="8AGuU69_h8K9wH-vG9Zy-26" target="8AGuU69_h8K9wH-vG9Zy-11" edge="1">
          <mxGeometry width="80" relative="1" as="geometry">
            <mxPoint x="850" y="165" as="sourcePoint" />
            <mxPoint x="730" y="135" as="targetPoint" />
          </mxGeometry>
        </mxCell>
        <mxCell id="8AGuU69_h8K9wH-vG9Zy-34" value="" style="html=1;verticalAlign=bottom;endArrow=block;curved=0;rounded=0;exitX=0;exitY=0.3333333333333333;exitDx=0;exitDy=0;exitPerimeter=0;entryX=1;entryY=0.5;entryDx=0;entryDy=0;" parent="1" source="8AGuU69_h8K9wH-vG9Zy-26" target="8AGuU69_h8K9wH-vG9Zy-12" edge="1">
          <mxGeometry width="80" relative="1" as="geometry">
            <mxPoint x="860" y="175" as="sourcePoint" />
            <mxPoint x="740" y="145" as="targetPoint" />
          </mxGeometry>
        </mxCell>
        <mxCell id="8AGuU69_h8K9wH-vG9Zy-35" value="modify&lt;div&gt;artwork&lt;/div&gt;" style="ellipse;whiteSpace=wrap;html=1;" parent="1" vertex="1">
          <mxGeometry x="385" y="390" width="80" height="50" as="geometry" />
        </mxCell>
        <mxCell id="8AGuU69_h8K9wH-vG9Zy-36" value="modify title" style="ellipse;whiteSpace=wrap;html=1;" parent="1" vertex="1">
          <mxGeometry x="630" y="360" width="80" height="50" as="geometry" />
        </mxCell>
        <mxCell id="8AGuU69_h8K9wH-vG9Zy-37" value="modify main photo" style="ellipse;whiteSpace=wrap;html=1;" parent="1" vertex="1">
          <mxGeometry x="630" y="430" width="80" height="50" as="geometry" />
        </mxCell>
        <mxCell id="8AGuU69_h8K9wH-vG9Zy-39" value="modify price" style="ellipse;whiteSpace=wrap;html=1;" parent="1" vertex="1">
          <mxGeometry x="630" y="590" width="80" height="50" as="geometry" />
        </mxCell>
        <mxCell id="8AGuU69_h8K9wH-vG9Zy-40" value="modify files" style="ellipse;whiteSpace=wrap;html=1;" parent="1" vertex="1">
          <mxGeometry x="630" y="500" width="80" height="50" as="geometry" />
        </mxCell>
        <mxCell id="8AGuU69_h8K9wH-vG9Zy-42" value="" style="endArrow=block;dashed=1;endFill=0;endSize=12;html=1;rounded=0;exitX=1;exitY=0.5;exitDx=0;exitDy=0;entryX=0;entryY=0.5;entryDx=0;entryDy=0;" parent="1" source="8AGuU69_h8K9wH-vG9Zy-35" target="8AGuU69_h8K9wH-vG9Zy-36" edge="1">
          <mxGeometry width="160" relative="1" as="geometry">
            <mxPoint x="475" y="180" as="sourcePoint" />
            <mxPoint x="650" y="135" as="targetPoint" />
          </mxGeometry>
        </mxCell>
        <mxCell id="8AGuU69_h8K9wH-vG9Zy-43" value="&amp;lt;&amp;lt;extend&amp;gt;&amp;gt;" style="edgeLabel;html=1;align=center;verticalAlign=middle;resizable=0;points=[];" parent="8AGuU69_h8K9wH-vG9Zy-42" vertex="1" connectable="0">
          <mxGeometry x="0.1341" y="1" relative="1" as="geometry">
            <mxPoint as="offset" />
          </mxGeometry>
        </mxCell>
        <mxCell id="8AGuU69_h8K9wH-vG9Zy-44" value="" style="endArrow=block;dashed=1;endFill=0;endSize=12;html=1;rounded=0;exitX=1;exitY=0.5;exitDx=0;exitDy=0;entryX=0;entryY=0.5;entryDx=0;entryDy=0;" parent="1" source="8AGuU69_h8K9wH-vG9Zy-35" target="8AGuU69_h8K9wH-vG9Zy-37" edge="1">
          <mxGeometry width="160" relative="1" as="geometry">
            <mxPoint x="485" y="190" as="sourcePoint" />
            <mxPoint x="660" y="145" as="targetPoint" />
          </mxGeometry>
        </mxCell>
        <mxCell id="8AGuU69_h8K9wH-vG9Zy-45" value="&amp;lt;&amp;lt;extend&amp;gt;&amp;gt;" style="edgeLabel;html=1;align=center;verticalAlign=middle;resizable=0;points=[];" parent="8AGuU69_h8K9wH-vG9Zy-44" vertex="1" connectable="0">
          <mxGeometry x="0.1341" y="1" relative="1" as="geometry">
            <mxPoint as="offset" />
          </mxGeometry>
        </mxCell>
        <mxCell id="8AGuU69_h8K9wH-vG9Zy-46" value="" style="endArrow=block;dashed=1;endFill=0;endSize=12;html=1;rounded=0;exitX=1;exitY=0.5;exitDx=0;exitDy=0;entryX=0;entryY=0.5;entryDx=0;entryDy=0;" parent="1" source="8AGuU69_h8K9wH-vG9Zy-35" target="8AGuU69_h8K9wH-vG9Zy-40" edge="1">
          <mxGeometry width="160" relative="1" as="geometry">
            <mxPoint x="495" y="200" as="sourcePoint" />
            <mxPoint x="670" y="155" as="targetPoint" />
          </mxGeometry>
        </mxCell>
        <mxCell id="8AGuU69_h8K9wH-vG9Zy-47" value="&amp;lt;&amp;lt;extend&amp;gt;&amp;gt;" style="edgeLabel;html=1;align=center;verticalAlign=middle;resizable=0;points=[];" parent="8AGuU69_h8K9wH-vG9Zy-46" vertex="1" connectable="0">
          <mxGeometry x="0.1341" y="1" relative="1" as="geometry">
            <mxPoint as="offset" />
          </mxGeometry>
        </mxCell>
        <mxCell id="8AGuU69_h8K9wH-vG9Zy-48" value="" style="endArrow=block;dashed=1;endFill=0;endSize=12;html=1;rounded=0;exitX=1;exitY=0.5;exitDx=0;exitDy=0;entryX=0;entryY=0.5;entryDx=0;entryDy=0;" parent="1" source="8AGuU69_h8K9wH-vG9Zy-35" target="8AGuU69_h8K9wH-vG9Zy-39" edge="1">
          <mxGeometry width="160" relative="1" as="geometry">
            <mxPoint x="505" y="210" as="sourcePoint" />
            <mxPoint x="680" y="165" as="targetPoint" />
          </mxGeometry>
        </mxCell>
        <mxCell id="8AGuU69_h8K9wH-vG9Zy-49" value="&amp;lt;&amp;lt;extend&amp;gt;&amp;gt;" style="edgeLabel;html=1;align=center;verticalAlign=middle;resizable=0;points=[];" parent="8AGuU69_h8K9wH-vG9Zy-48" vertex="1" connectable="0">
          <mxGeometry x="0.1341" y="1" relative="1" as="geometry">
            <mxPoint as="offset" />
          </mxGeometry>
        </mxCell>
        <mxCell id="8AGuU69_h8K9wH-vG9Zy-52" value="" style="html=1;verticalAlign=bottom;endArrow=block;curved=0;rounded=0;exitX=0;exitY=0.3333333333333333;exitDx=0;exitDy=0;exitPerimeter=0;entryX=1;entryY=0.5;entryDx=0;entryDy=0;" parent="1" source="8AGuU69_h8K9wH-vG9Zy-26" target="8AGuU69_h8K9wH-vG9Zy-36" edge="1">
          <mxGeometry width="80" relative="1" as="geometry">
            <mxPoint x="850" y="165" as="sourcePoint" />
            <mxPoint x="720" y="315" as="targetPoint" />
          </mxGeometry>
        </mxCell>
        <mxCell id="8AGuU69_h8K9wH-vG9Zy-53" value="" style="html=1;verticalAlign=bottom;endArrow=block;curved=0;rounded=0;exitX=0;exitY=0.3333333333333333;exitDx=0;exitDy=0;exitPerimeter=0;entryX=1;entryY=0.5;entryDx=0;entryDy=0;" parent="1" source="8AGuU69_h8K9wH-vG9Zy-26" target="8AGuU69_h8K9wH-vG9Zy-37" edge="1">
          <mxGeometry width="80" relative="1" as="geometry">
            <mxPoint x="860" y="175" as="sourcePoint" />
            <mxPoint x="730" y="325" as="targetPoint" />
          </mxGeometry>
        </mxCell>
        <mxCell id="8AGuU69_h8K9wH-vG9Zy-54" value="" style="html=1;verticalAlign=bottom;endArrow=block;curved=0;rounded=0;exitX=0;exitY=0.3333333333333333;exitDx=0;exitDy=0;exitPerimeter=0;entryX=1;entryY=0.5;entryDx=0;entryDy=0;" parent="1" source="8AGuU69_h8K9wH-vG9Zy-26" target="8AGuU69_h8K9wH-vG9Zy-40" edge="1">
          <mxGeometry width="80" relative="1" as="geometry">
            <mxPoint x="870" y="185" as="sourcePoint" />
            <mxPoint x="740" y="335" as="targetPoint" />
          </mxGeometry>
        </mxCell>
        <mxCell id="8AGuU69_h8K9wH-vG9Zy-55" value="Order Service" style="shape=umlActor;verticalLabelPosition=bottom;verticalAlign=top;html=1;outlineConnect=0;" parent="1" vertex="1">
          <mxGeometry x="830" y="500" width="30" height="60" as="geometry" />
        </mxCell>
        <mxCell id="8AGuU69_h8K9wH-vG9Zy-57" value="" style="html=1;verticalAlign=bottom;endArrow=block;curved=0;rounded=0;exitX=0;exitY=0.3333333333333333;exitDx=0;exitDy=0;exitPerimeter=0;entryX=1;entryY=0.5;entryDx=0;entryDy=0;" parent="1" source="8AGuU69_h8K9wH-vG9Zy-55" target="8AGuU69_h8K9wH-vG9Zy-39" edge="1">
          <mxGeometry width="80" relative="1" as="geometry">
            <mxPoint x="840" y="175" as="sourcePoint" />
            <mxPoint x="720" y="535" as="targetPoint" />
          </mxGeometry>
        </mxCell>
        <mxCell id="8AGuU69_h8K9wH-vG9Zy-59" value="" style="html=1;verticalAlign=bottom;endArrow=block;curved=0;rounded=0;exitX=1;exitY=0.3333333333333333;exitDx=0;exitDy=0;exitPerimeter=0;entryX=0;entryY=0.5;entryDx=0;entryDy=0;" parent="1" source="8AGuU69_h8K9wH-vG9Zy-1" target="8AGuU69_h8K9wH-vG9Zy-35" edge="1">
          <mxGeometry width="80" relative="1" as="geometry">
            <mxPoint x="840" y="175" as="sourcePoint" />
            <mxPoint x="730" y="135" as="targetPoint" />
          </mxGeometry>
        </mxCell>
        <mxCell id="8AGuU69_h8K9wH-vG9Zy-60" value="" style="html=1;verticalAlign=bottom;endArrow=block;curved=0;rounded=0;exitX=1;exitY=0.3333333333333333;exitDx=0;exitDy=0;exitPerimeter=0;entryX=0;entryY=0.5;entryDx=0;entryDy=0;" parent="1" source="8AGuU69_h8K9wH-vG9Zy-1" target="8AGuU69_h8K9wH-vG9Zy-8" edge="1">
          <mxGeometry width="80" relative="1" as="geometry">
            <mxPoint x="850" y="185" as="sourcePoint" />
            <mxPoint x="740" y="145" as="targetPoint" />
          </mxGeometry>
        </mxCell>
        <mxCell id="8AGuU69_h8K9wH-vG9Zy-61" value="delete&lt;br&gt;&lt;div&gt;artwork&lt;/div&gt;" style="ellipse;whiteSpace=wrap;html=1;" parent="1" vertex="1">
          <mxGeometry x="630" y="680" width="80" height="50" as="geometry" />
        </mxCell>
        <mxCell id="8AGuU69_h8K9wH-vG9Zy-63" value="" style="html=1;verticalAlign=bottom;endArrow=block;curved=0;rounded=0;exitX=1;exitY=0.3333333333333333;exitDx=0;exitDy=0;exitPerimeter=0;entryX=0;entryY=0.5;entryDx=0;entryDy=0;" parent="1" source="8AGuU69_h8K9wH-vG9Zy-1" target="8AGuU69_h8K9wH-vG9Zy-61" edge="1">
          <mxGeometry width="80" relative="1" as="geometry">
            <mxPoint x="300" y="170" as="sourcePoint" />
            <mxPoint x="395" y="425" as="targetPoint" />
          </mxGeometry>
        </mxCell>
        <mxCell id="8AGuU69_h8K9wH-vG9Zy-64" value="" style="html=1;verticalAlign=bottom;endArrow=block;curved=0;rounded=0;exitX=0;exitY=0.3333333333333333;exitDx=0;exitDy=0;exitPerimeter=0;entryX=1;entryY=0.5;entryDx=0;entryDy=0;" parent="1" source="8AGuU69_h8K9wH-vG9Zy-26" target="8AGuU69_h8K9wH-vG9Zy-61" edge="1">
          <mxGeometry width="80" relative="1" as="geometry">
            <mxPoint x="310" y="180" as="sourcePoint" />
            <mxPoint x="405" y="435" as="targetPoint" />
          </mxGeometry>
        </mxCell>
        <mxCell id="8AGuU69_h8K9wH-vG9Zy-66" value="confirm&amp;nbsp;&lt;span style=&quot;color: rgba(0, 0, 0, 0); font-family: monospace; font-size: 0px; text-align: start; text-wrap-mode: nowrap;&quot;&gt;%3CmxGraphModel%3E%3Croot%3E%3CmxCell%20id%3D%220%22%2F%3E%3CmxCell%20id%3D%221%22%20parent%3D%220%22%2F%3E%3CmxCell%20id%3D%222%22%20value%3D%22make%20an%20order%22%20style%3D%22ellipse%3BwhiteSpace%3Dwrap%3Bhtml%3D1%3B%22%20vertex%3D%221%22%20parent%3D%221%22%3E%3CmxGeometry%20x%3D%22380%22%20y%3D%22820%22%20width%3D%2280%22%20height%3D%2250%22%20as%3D%22geometry%22%2F%3E%3C%2FmxCell%3E%3C%2Froot%3E%3C%2FmxGraphModel%3E&lt;/span&gt;ship method" style="ellipse;whiteSpace=wrap;html=1;" parent="1" vertex="1">
          <mxGeometry x="580" y="820" width="80" height="50" as="geometry" />
        </mxCell>
        <mxCell id="8AGuU69_h8K9wH-vG9Zy-67" value="make an order" style="ellipse;whiteSpace=wrap;html=1;" parent="1" vertex="1">
          <mxGeometry x="390" y="830" width="80" height="50" as="geometry" />
        </mxCell>
        <mxCell id="8AGuU69_h8K9wH-vG9Zy-68" value="confirm total price" style="ellipse;whiteSpace=wrap;html=1;" parent="1" vertex="1">
          <mxGeometry x="580" y="920" width="80" height="50" as="geometry" />
        </mxCell>
        <mxCell id="8AGuU69_h8K9wH-vG9Zy-69" value="" style="endArrow=block;dashed=1;endFill=0;endSize=12;html=1;rounded=0;exitX=1;exitY=0.5;exitDx=0;exitDy=0;entryX=0;entryY=0.5;entryDx=0;entryDy=0;" parent="1" source="8AGuU69_h8K9wH-vG9Zy-67" target="8AGuU69_h8K9wH-vG9Zy-66" edge="1">
          <mxGeometry width="160" relative="1" as="geometry">
            <mxPoint x="475" y="180" as="sourcePoint" />
            <mxPoint x="650" y="212" as="targetPoint" />
          </mxGeometry>
        </mxCell>
        <mxCell id="8AGuU69_h8K9wH-vG9Zy-70" value="&amp;lt;&amp;lt;include&amp;gt;&amp;gt;" style="edgeLabel;html=1;align=center;verticalAlign=middle;resizable=0;points=[];" parent="8AGuU69_h8K9wH-vG9Zy-69" vertex="1" connectable="0">
          <mxGeometry x="0.1496" y="-1" relative="1" as="geometry">
            <mxPoint as="offset" />
          </mxGeometry>
        </mxCell>
        <mxCell id="8AGuU69_h8K9wH-vG9Zy-71" value="" style="endArrow=block;dashed=1;endFill=0;endSize=12;html=1;rounded=0;exitX=1;exitY=0.5;exitDx=0;exitDy=0;entryX=0;entryY=0.5;entryDx=0;entryDy=0;" parent="1" source="8AGuU69_h8K9wH-vG9Zy-67" target="8AGuU69_h8K9wH-vG9Zy-68" edge="1">
          <mxGeometry width="160" relative="1" as="geometry">
            <mxPoint x="485" y="190" as="sourcePoint" />
            <mxPoint x="660" y="222" as="targetPoint" />
          </mxGeometry>
        </mxCell>
        <mxCell id="8AGuU69_h8K9wH-vG9Zy-72" value="&amp;lt;&amp;lt;include&amp;gt;&amp;gt;" style="edgeLabel;html=1;align=center;verticalAlign=middle;resizable=0;points=[];" parent="8AGuU69_h8K9wH-vG9Zy-71" vertex="1" connectable="0">
          <mxGeometry x="0.1496" y="-1" relative="1" as="geometry">
            <mxPoint as="offset" />
          </mxGeometry>
        </mxCell>
        <mxCell id="8AGuU69_h8K9wH-vG9Zy-73" value="" style="html=1;verticalAlign=bottom;endArrow=block;curved=0;rounded=0;exitX=1;exitY=0.3333333333333333;exitDx=0;exitDy=0;exitPerimeter=0;entryX=0;entryY=0.5;entryDx=0;entryDy=0;" parent="1" source="8AGuU69_h8K9wH-vG9Zy-2" target="8AGuU69_h8K9wH-vG9Zy-67" edge="1">
          <mxGeometry width="80" relative="1" as="geometry">
            <mxPoint x="300" y="170" as="sourcePoint" />
            <mxPoint x="395" y="425" as="targetPoint" />
          </mxGeometry>
        </mxCell>
        <mxCell id="8AGuU69_h8K9wH-vG9Zy-74" value="" style="html=1;verticalAlign=bottom;endArrow=block;curved=0;rounded=0;entryX=1;entryY=0.5;entryDx=0;entryDy=0;exitX=0;exitY=0.3333333333333333;exitDx=0;exitDy=0;exitPerimeter=0;" parent="1" source="8AGuU69_h8K9wH-vG9Zy-55" target="8AGuU69_h8K9wH-vG9Zy-66" edge="1">
          <mxGeometry width="80" relative="1" as="geometry">
            <mxPoint x="810" y="520" as="sourcePoint" />
            <mxPoint x="720" y="625" as="targetPoint" />
          </mxGeometry>
        </mxCell>
        <mxCell id="8AGuU69_h8K9wH-vG9Zy-75" value="" style="html=1;verticalAlign=bottom;endArrow=block;curved=0;rounded=0;exitX=0;exitY=0.3333333333333333;exitDx=0;exitDy=0;exitPerimeter=0;entryX=1;entryY=0.5;entryDx=0;entryDy=0;" parent="1" source="8AGuU69_h8K9wH-vG9Zy-55" target="8AGuU69_h8K9wH-vG9Zy-68" edge="1">
          <mxGeometry width="80" relative="1" as="geometry">
            <mxPoint x="850" y="540" as="sourcePoint" />
            <mxPoint x="730" y="635" as="targetPoint" />
          </mxGeometry>
        </mxCell>
        <mxCell id="8AGuU69_h8K9wH-vG9Zy-76" value="cancle an order" style="ellipse;whiteSpace=wrap;html=1;" parent="1" vertex="1">
          <mxGeometry x="390" y="970" width="80" height="50" as="geometry" />
        </mxCell>
        <mxCell id="8AGuU69_h8K9wH-vG9Zy-77" value="confirm order validation&lt;span style=&quot;color: rgba(0, 0, 0, 0); font-family: monospace; font-size: 0px; text-align: start; text-wrap-mode: nowrap;&quot;&gt;%3CmxGraphModel%3E%3Croot%3E%3CmxCell%20id%3D%220%22%2F%3E%3CmxCell%20id%3D%221%22%20parent%3D%220%22%2F%3E%3CmxCell%20id%3D%222%22%20value%3D%22make%20an%20order%22%20style%3D%22ellipse%3BwhiteSpace%3Dwrap%3Bhtml%3D1%3B%22%20vertex%3D%221%22%20parent%3D%221%22%3E%3CmxGeometry%20x%3D%22380%22%20y%3D%22820%22%20width%3D%2280%22%20height%3D%2250%22%20as%3D%22geometry%22%2F%3E%3C%2FmxCell%3E%3C%2Froot%3E%3C%2FmxGraphModel%3Eorder&amp;nbsp;&lt;/span&gt;" style="ellipse;whiteSpace=wrap;html=1;" parent="1" vertex="1">
          <mxGeometry x="580" y="990" width="80" height="50" as="geometry" />
        </mxCell>
        <mxCell id="8AGuU69_h8K9wH-vG9Zy-78" value="" style="endArrow=block;dashed=1;endFill=0;endSize=12;html=1;rounded=0;exitX=1;exitY=0.5;exitDx=0;exitDy=0;entryX=0;entryY=0.5;entryDx=0;entryDy=0;" parent="1" source="8AGuU69_h8K9wH-vG9Zy-76" target="8AGuU69_h8K9wH-vG9Zy-77" edge="1">
          <mxGeometry width="160" relative="1" as="geometry">
            <mxPoint x="480" y="865" as="sourcePoint" />
            <mxPoint x="590" y="955" as="targetPoint" />
          </mxGeometry>
        </mxCell>
        <mxCell id="8AGuU69_h8K9wH-vG9Zy-79" value="&amp;lt;&amp;lt;include&amp;gt;&amp;gt;" style="edgeLabel;html=1;align=center;verticalAlign=middle;resizable=0;points=[];" parent="8AGuU69_h8K9wH-vG9Zy-78" vertex="1" connectable="0">
          <mxGeometry x="0.1496" y="-1" relative="1" as="geometry">
            <mxPoint as="offset" />
          </mxGeometry>
        </mxCell>
        <mxCell id="8AGuU69_h8K9wH-vG9Zy-80" value="" style="html=1;verticalAlign=bottom;endArrow=block;curved=0;rounded=0;exitX=1;exitY=0.3333333333333333;exitDx=0;exitDy=0;exitPerimeter=0;entryX=0;entryY=0.5;entryDx=0;entryDy=0;" parent="1" source="8AGuU69_h8K9wH-vG9Zy-2" target="8AGuU69_h8K9wH-vG9Zy-76" edge="1">
          <mxGeometry width="80" relative="1" as="geometry">
            <mxPoint x="300" y="890" as="sourcePoint" />
            <mxPoint x="400" y="865" as="targetPoint" />
          </mxGeometry>
        </mxCell>
        <mxCell id="8AGuU69_h8K9wH-vG9Zy-81" value="" style="html=1;verticalAlign=bottom;endArrow=block;curved=0;rounded=0;exitX=0;exitY=0.3333333333333333;exitDx=0;exitDy=0;exitPerimeter=0;entryX=1;entryY=0.5;entryDx=0;entryDy=0;" parent="1" source="8AGuU69_h8K9wH-vG9Zy-55" target="8AGuU69_h8K9wH-vG9Zy-77" edge="1">
          <mxGeometry width="80" relative="1" as="geometry">
            <mxPoint x="310" y="900" as="sourcePoint" />
            <mxPoint x="410" y="875" as="targetPoint" />
          </mxGeometry>
        </mxCell>
        <mxCell id="8AGuU69_h8K9wH-vG9Zy-83" value="search an artwork" style="ellipse;whiteSpace=wrap;html=1;" parent="1" vertex="1">
          <mxGeometry x="410" y="1070" width="80" height="50" as="geometry" />
        </mxCell>
        <mxCell id="8AGuU69_h8K9wH-vG9Zy-84" value="" style="endArrow=block;dashed=1;endFill=0;endSize=12;html=1;rounded=0;exitX=1;exitY=0.5;exitDx=0;exitDy=0;entryX=0;entryY=0.5;entryDx=0;entryDy=0;" parent="1" source="8AGuU69_h8K9wH-vG9Zy-83" target="8AGuU69_h8K9wH-vG9Zy-86" edge="1">
          <mxGeometry width="160" relative="1" as="geometry">
            <mxPoint x="480" y="1005" as="sourcePoint" />
            <mxPoint x="590" y="1025" as="targetPoint" />
          </mxGeometry>
        </mxCell>
        <mxCell id="8AGuU69_h8K9wH-vG9Zy-85" value="&amp;lt;&amp;lt;include&amp;gt;&amp;gt;" style="edgeLabel;html=1;align=center;verticalAlign=middle;resizable=0;points=[];" parent="8AGuU69_h8K9wH-vG9Zy-84" vertex="1" connectable="0">
          <mxGeometry x="0.1496" y="-1" relative="1" as="geometry">
            <mxPoint as="offset" />
          </mxGeometry>
        </mxCell>
        <mxCell id="8AGuU69_h8K9wH-vG9Zy-86" value="search by id&lt;span style=&quot;color: rgba(0, 0, 0, 0); font-family: monospace; font-size: 0px; text-align: start; text-wrap-mode: nowrap;&quot;&gt;%3CmxGraphModel%3E%3Croot%3E%3CmxCell%20id%3D%220%22%2F%3E%3CmxCell%20id%3D%221%22%20parent%3D%220%22%2F%3E%3CmxCell%20id%3D%222%22%20value%3D%22confirm%20order%20validation%26lt%3Bspan%20style%3D%26quot%3Bcolor%3A%20rgba(0%2C%200%2C%200%2C%200)%3B%20font-family%3A%20monospace%3B%20font-size%3A%200px%3B%20text-align%3A%20start%3B%20text-wrap-mode%3A%20nowrap%3B%26quot%3B%26gt%3B%253CmxGraphModel%253E%253Croot%253E%253CmxCell%2520id%253D%25220%2522%252F%253E%253CmxCell%2520id%253D%25221%2522%2520parent%253D%25220%2522%252F%253E%253CmxCell%2520id%253D%25222%2522%2520value%253D%2522make%2520an%2520order%2522%2520style%253D%2522ellipse%253BwhiteSpace%253Dwrap%253Bhtml%253D1%253B%2522%2520vertex%253D%25221%2522%2520parent%253D%25221%2522%253E%253CmxGeometry%2520x%253D%2522380%2522%2520y%253D%2522820%2522%2520width%253D%252280%2522%2520height%253D%252250%2522%2520as%253D%2522geometry%2522%252F%253E%253C%252FmxCell%253E%253C%252Froot%253E%253C%252FmxGraphModel%253Eorder%26amp%3Bnbsp%3B%26lt%3B%2Fspan%26gt%3B%22%20style%3D%22ellipse%3BwhiteSpace%3Dwrap%3Bhtml%3D1%3B%22%20vertex%3D%221%22%20parent%3D%221%22%3E%3CmxGeometry%20x%3D%22580%22%20y%3D%22990%22%20width%3D%2280%22%20height%3D%2250%22%20as%3D%22geometry%22%2F%3E%3C%2FmxCell%3E%3C%2Froot%3E%3C%2FmxGraphModel%3E&lt;/span&gt;" style="ellipse;whiteSpace=wrap;html=1;" parent="1" vertex="1">
          <mxGeometry x="590" y="1080" width="80" height="50" as="geometry" />
        </mxCell>
        <mxCell id="8AGuU69_h8K9wH-vG9Zy-87" value="search by title&lt;span style=&quot;color: rgba(0, 0, 0, 0); font-family: monospace; font-size: 0px; text-align: start; text-wrap-mode: nowrap;&quot;&gt;%3CmxGraphModel%3E%3Croot%3E%3CmxCell%20id%3D%220%22%2F%3E%3CmxCell%20id%3D%221%22%20parent%3D%220%22%2F%3E%3CmxCell%20id%3D%222%22%20value%3D%22confirm%20order%20validation%26lt%3Bspan%20style%3D%26quot%3Bcolor%3A%20rgba(0%2C%200%2C%200%2C%200)%3B%20font-family%3A%20monospace%3B%20font-size%3A%200px%3B%20text-align%3A%20start%3B%20text-wrap-mode%3A%20nowrap%3B%26quot%3B%26gt%3B%253CmxGraphModel%253E%253Croot%253E%253CmxCell%2520id%253D%25220%2522%252F%253E%253CmxCell%2520id%253D%25221%2522%2520parent%253D%25220%2522%252F%253E%253CmxCell%2520id%253D%25222%2522%2520value%253D%2522make%2520an%2520order%2522%2520style%253D%2522ellipse%253BwhiteSpace%253Dwrap%253Bhtml%253D1%253B%2522%2520vertex%253D%25221%2522%2520parent%253D%25221%2522%253E%253CmxGeometry%2520x%253D%2522380%2522%2520y%253D%2522820%2522%2520width%253D%252280%2522%2520height%253D%252250%2522%2520as%253D%2522geometry%2522%252F%253E%253C%252FmxCell%253E%253C%252Froot%253E%253C%252FmxGraphModel%253Eorder%26amp%3Bnbsp%3B%26lt%3B%2Fspan%26gt%3B%22%20style%3D%22ellipse%3BwhiteSpace%3Dwrap%3Bhtml%3D1%3B%22%20vertex%3D%221%22%20parent%3D%221%22%3E%3CmxGeometry%20x%3D%22580%22%20y%3D%22990%22%20width%3D%2280%22%20height%3D%2250%22%20as%3D%22geometry%22%2F%3E%3C%2FmxCell%3E%3C%2Froot%3E%3C%2FmxGraphModel%&lt;/span&gt;" style="ellipse;whiteSpace=wrap;html=1;" parent="1" vertex="1">
          <mxGeometry x="590" y="1180" width="80" height="50" as="geometry" />
        </mxCell>
        <mxCell id="8AGuU69_h8K9wH-vG9Zy-88" value="search by type&lt;span style=&quot;color: rgba(0, 0, 0, 0); font-family: monospace; font-size: 0px; text-align: start; text-wrap-mode: nowrap;&quot;&gt;%3CmxGraphModel%3E%3Croot%3E%3CmxCell%20id%3D%220%22%2F%3E%3CmxCell%20id%3D%221%22%20parent%3D%220%22%2F%3E%3CmxCell%20id%3D%222%22%20value%3D%22confirm%20order%20validation%26lt%3Bspan%20style%3D%26quot%3Bcolor%3A%20rgba(0%2C%200%2C%200%2C%200)%3B%20font-family%3A%20monospace%3B%20font-size%3A%200px%3B%20text-align%3A%20start%3B%20text-wrap-mode%3A%20nowrap%3B%26quot%3B%26gt%3B%253CmxGraphModel%253E%253Croot%253E%253CmxCell%2520id%253D%25220%2522%252F%253E%253CmxCell%2520id%253D%25221%2522%2520parent%253D%25220%2522%252F%253E%253CmxCell%2520id%253D%25222%2522%2520value%253D%2522make%2520an%2520order%2522%2520style%253D%2522ellipse%253BwhiteSpace%253Dwrap%253Bhtml%253D1%253B%2522%2520vertex%253D%25221%2522%2520parent%253D%25221%2522%253E%253CmxGeometry%2520x%253D%2522380%2522%2520y%253D%2522820%2522%2520width%253D%252280%2522%2520height%253D%252250%2522%2520as%253D%2522geometry%2522%252F%253E%253C%252FmxCell%253E%253C%252Froot%253E%253C%252FmxGraphModel%253Eorder%26amp%3Bnbsp%3B%26lt%3B%2Fspan%26gt%3B%22%20style%3D%22ellipse%3BwhiteSpace%3Dwrap%3Bhtml%3D1%3B%22%20vertex%3D%221%22%20parent%3D%221%22%3E%3CmxGeometry%20x%3D%22580%22%20y%3D%22990%22%20width%3D%2280%22%20height%3D%2250%22%20as%3D%22geometry%22%2F%3E%3C%2FmxCell%3E%3C%2Froot%3E%3C%2FmxGraphModel%&lt;/span&gt;" style="ellipse;whiteSpace=wrap;html=1;" parent="1" vertex="1">
          <mxGeometry x="590" y="1240" width="80" height="50" as="geometry" />
        </mxCell>
        <mxCell id="8AGuU69_h8K9wH-vG9Zy-90" value="" style="endArrow=block;dashed=1;endFill=0;endSize=12;html=1;rounded=0;exitX=1;exitY=0.5;exitDx=0;exitDy=0;entryX=0;entryY=0.5;entryDx=0;entryDy=0;" parent="1" source="8AGuU69_h8K9wH-vG9Zy-83" target="8AGuU69_h8K9wH-vG9Zy-87" edge="1">
          <mxGeometry width="160" relative="1" as="geometry">
            <mxPoint x="480" y="1115" as="sourcePoint" />
            <mxPoint x="600" y="1115" as="targetPoint" />
          </mxGeometry>
        </mxCell>
        <mxCell id="8AGuU69_h8K9wH-vG9Zy-91" value="&amp;lt;&amp;lt;extend&amp;gt;&amp;gt;" style="edgeLabel;html=1;align=center;verticalAlign=middle;resizable=0;points=[];" parent="8AGuU69_h8K9wH-vG9Zy-90" vertex="1" connectable="0">
          <mxGeometry x="0.1496" y="-1" relative="1" as="geometry">
            <mxPoint as="offset" />
          </mxGeometry>
        </mxCell>
        <mxCell id="8AGuU69_h8K9wH-vG9Zy-92" value="" style="endArrow=block;dashed=1;endFill=0;endSize=12;html=1;rounded=0;exitX=1;exitY=0.5;exitDx=0;exitDy=0;entryX=0;entryY=0.5;entryDx=0;entryDy=0;" parent="1" source="8AGuU69_h8K9wH-vG9Zy-83" target="8AGuU69_h8K9wH-vG9Zy-88" edge="1">
          <mxGeometry width="160" relative="1" as="geometry">
            <mxPoint x="480" y="1115" as="sourcePoint" />
            <mxPoint x="600" y="1215" as="targetPoint" />
          </mxGeometry>
        </mxCell>
        <mxCell id="8AGuU69_h8K9wH-vG9Zy-93" value="&amp;lt;&amp;lt;extend&amp;gt;&amp;gt;" style="edgeLabel;html=1;align=center;verticalAlign=middle;resizable=0;points=[];" parent="8AGuU69_h8K9wH-vG9Zy-92" vertex="1" connectable="0">
          <mxGeometry x="0.1496" y="-1" relative="1" as="geometry">
            <mxPoint as="offset" />
          </mxGeometry>
        </mxCell>
        <mxCell id="8AGuU69_h8K9wH-vG9Zy-94" value="Artwork service" style="shape=umlActor;verticalLabelPosition=bottom;verticalAlign=top;html=1;outlineConnect=0;" parent="1" vertex="1">
          <mxGeometry x="840" y="880" width="30" height="60" as="geometry" />
        </mxCell>
        <mxCell id="8AGuU69_h8K9wH-vG9Zy-95" value="" style="html=1;verticalAlign=bottom;endArrow=block;curved=0;rounded=0;exitX=0;exitY=0.3333333333333333;exitDx=0;exitDy=0;exitPerimeter=0;entryX=1;entryY=0.5;entryDx=0;entryDy=0;" parent="1" source="8AGuU69_h8K9wH-vG9Zy-94" target="8AGuU69_h8K9wH-vG9Zy-86" edge="1">
          <mxGeometry width="80" relative="1" as="geometry">
            <mxPoint x="840" y="530" as="sourcePoint" />
            <mxPoint x="670" y="1025" as="targetPoint" />
          </mxGeometry>
        </mxCell>
        <mxCell id="8AGuU69_h8K9wH-vG9Zy-96" value="" style="html=1;verticalAlign=bottom;endArrow=block;curved=0;rounded=0;exitX=0;exitY=0.3333333333333333;exitDx=0;exitDy=0;exitPerimeter=0;entryX=1;entryY=0.5;entryDx=0;entryDy=0;" parent="1" source="8AGuU69_h8K9wH-vG9Zy-94" target="8AGuU69_h8K9wH-vG9Zy-87" edge="1">
          <mxGeometry width="80" relative="1" as="geometry">
            <mxPoint x="850" y="540" as="sourcePoint" />
            <mxPoint x="680" y="1035" as="targetPoint" />
          </mxGeometry>
        </mxCell>
        <mxCell id="8AGuU69_h8K9wH-vG9Zy-97" value="" style="html=1;verticalAlign=bottom;endArrow=block;curved=0;rounded=0;exitX=0;exitY=0.3333333333333333;exitDx=0;exitDy=0;exitPerimeter=0;entryX=1;entryY=0.5;entryDx=0;entryDy=0;" parent="1" source="8AGuU69_h8K9wH-vG9Zy-94" target="8AGuU69_h8K9wH-vG9Zy-88" edge="1">
          <mxGeometry width="80" relative="1" as="geometry">
            <mxPoint x="860" y="550" as="sourcePoint" />
            <mxPoint x="690" y="1045" as="targetPoint" />
          </mxGeometry>
        </mxCell>
        <mxCell id="8AGuU69_h8K9wH-vG9Zy-98" value="" style="html=1;verticalAlign=bottom;endArrow=block;curved=0;rounded=0;exitX=1;exitY=0.3333333333333333;exitDx=0;exitDy=0;exitPerimeter=0;entryX=0;entryY=0.5;entryDx=0;entryDy=0;" parent="1" source="8AGuU69_h8K9wH-vG9Zy-2" target="8AGuU69_h8K9wH-vG9Zy-83" edge="1">
          <mxGeometry width="80" relative="1" as="geometry">
            <mxPoint x="870" y="560" as="sourcePoint" />
            <mxPoint x="700" y="1055" as="targetPoint" />
          </mxGeometry>
        </mxCell>
        <mxCell id="8AGuU69_h8K9wH-vG9Zy-99" value="" style="html=1;verticalAlign=bottom;endArrow=block;curved=0;rounded=0;exitX=1;exitY=0.3333333333333333;exitDx=0;exitDy=0;exitPerimeter=0;entryX=0;entryY=0.5;entryDx=0;entryDy=0;" parent="1" source="8AGuU69_h8K9wH-vG9Zy-1" target="8AGuU69_h8K9wH-vG9Zy-83" edge="1">
          <mxGeometry width="80" relative="1" as="geometry">
            <mxPoint x="880" y="570" as="sourcePoint" />
            <mxPoint x="710" y="1065" as="targetPoint" />
          </mxGeometry>
        </mxCell>
        <mxCell id="8AGuU69_h8K9wH-vG9Zy-100" value="" style="html=1;verticalAlign=bottom;endArrow=block;curved=0;rounded=0;exitX=1;exitY=0.3333333333333333;exitDx=0;exitDy=0;exitPerimeter=0;entryX=0;entryY=0.5;entryDx=0;entryDy=0;" parent="1" source="8AGuU69_h8K9wH-vG9Zy-4" target="8AGuU69_h8K9wH-vG9Zy-83" edge="1">
          <mxGeometry width="80" relative="1" as="geometry">
            <mxPoint x="890" y="580" as="sourcePoint" />
            <mxPoint x="720" y="1075" as="targetPoint" />
          </mxGeometry>
        </mxCell>
        <mxCell id="8AGuU69_h8K9wH-vG9Zy-101" value="" style="html=1;verticalAlign=bottom;endArrow=block;curved=0;rounded=0;exitX=1;exitY=0.3333333333333333;exitDx=0;exitDy=0;exitPerimeter=0;entryX=0;entryY=1;entryDx=0;entryDy=0;" parent="1" source="8AGuU69_h8K9wH-vG9Zy-3" target="8AGuU69_h8K9wH-vG9Zy-83" edge="1">
          <mxGeometry width="80" relative="1" as="geometry">
            <mxPoint x="300" y="1430" as="sourcePoint" />
            <mxPoint x="390" y="1110" as="targetPoint" />
          </mxGeometry>
        </mxCell>
        <mxCell id="8AGuU69_h8K9wH-vG9Zy-102" value="set an auction" style="ellipse;whiteSpace=wrap;html=1;" parent="1" vertex="1">
          <mxGeometry x="425" y="1380" width="80" height="50" as="geometry" />
        </mxCell>
        <mxCell id="8AGuU69_h8K9wH-vG9Zy-104" value="" style="html=1;verticalAlign=bottom;endArrow=block;curved=0;rounded=0;exitX=1;exitY=0.3333333333333333;exitDx=0;exitDy=0;exitPerimeter=0;entryX=0;entryY=0.5;entryDx=0;entryDy=0;" parent="1" source="8AGuU69_h8K9wH-vG9Zy-4" target="8AGuU69_h8K9wH-vG9Zy-102" edge="1">
          <mxGeometry width="80" relative="1" as="geometry">
            <mxPoint x="300" y="1640" as="sourcePoint" />
            <mxPoint x="432" y="1123" as="targetPoint" />
          </mxGeometry>
        </mxCell>
        <mxCell id="8AGuU69_h8K9wH-vG9Zy-105" value="validate Dealer&#39;s passcode" style="ellipse;whiteSpace=wrap;html=1;" parent="1" vertex="1">
          <mxGeometry x="580" y="1370" width="80" height="50" as="geometry" />
        </mxCell>
        <mxCell id="8AGuU69_h8K9wH-vG9Zy-106" value="set auction title" style="ellipse;whiteSpace=wrap;html=1;" parent="1" vertex="1">
          <mxGeometry x="580" y="1440" width="80" height="50" as="geometry" />
        </mxCell>
        <mxCell id="8AGuU69_h8K9wH-vG9Zy-107" value="set auction size" style="ellipse;whiteSpace=wrap;html=1;" parent="1" vertex="1">
          <mxGeometry x="570" y="1500" width="80" height="50" as="geometry" />
        </mxCell>
        <mxCell id="8AGuU69_h8K9wH-vG9Zy-109" value="" style="endArrow=block;dashed=1;endFill=0;endSize=12;html=1;rounded=0;exitX=1;exitY=0.5;exitDx=0;exitDy=0;entryX=0;entryY=0.5;entryDx=0;entryDy=0;" parent="1" source="8AGuU69_h8K9wH-vG9Zy-102" target="8AGuU69_h8K9wH-vG9Zy-105" edge="1">
          <mxGeometry width="160" relative="1" as="geometry">
            <mxPoint x="500" y="1105" as="sourcePoint" />
            <mxPoint x="600" y="1115" as="targetPoint" />
          </mxGeometry>
        </mxCell>
        <mxCell id="8AGuU69_h8K9wH-vG9Zy-110" value="&amp;lt;&amp;lt;include&amp;gt;&amp;gt;" style="edgeLabel;html=1;align=center;verticalAlign=middle;resizable=0;points=[];" parent="8AGuU69_h8K9wH-vG9Zy-109" vertex="1" connectable="0">
          <mxGeometry x="0.1496" y="-1" relative="1" as="geometry">
            <mxPoint as="offset" />
          </mxGeometry>
        </mxCell>
        <mxCell id="8AGuU69_h8K9wH-vG9Zy-111" value="" style="endArrow=block;dashed=1;endFill=0;endSize=12;html=1;rounded=0;exitX=1;exitY=0.5;exitDx=0;exitDy=0;entryX=0;entryY=0.5;entryDx=0;entryDy=0;" parent="1" source="8AGuU69_h8K9wH-vG9Zy-102" target="8AGuU69_h8K9wH-vG9Zy-106" edge="1">
          <mxGeometry width="160" relative="1" as="geometry">
            <mxPoint x="510" y="1115" as="sourcePoint" />
            <mxPoint x="610" y="1125" as="targetPoint" />
          </mxGeometry>
        </mxCell>
        <mxCell id="8AGuU69_h8K9wH-vG9Zy-112" value="&amp;lt;&amp;lt;include&amp;gt;&amp;gt;" style="edgeLabel;html=1;align=center;verticalAlign=middle;resizable=0;points=[];" parent="8AGuU69_h8K9wH-vG9Zy-111" vertex="1" connectable="0">
          <mxGeometry x="0.1496" y="-1" relative="1" as="geometry">
            <mxPoint as="offset" />
          </mxGeometry>
        </mxCell>
        <mxCell id="8AGuU69_h8K9wH-vG9Zy-113" value="" style="endArrow=block;dashed=1;endFill=0;endSize=12;html=1;rounded=0;entryX=0;entryY=0.5;entryDx=0;entryDy=0;exitX=1;exitY=1;exitDx=0;exitDy=0;" parent="1" source="8AGuU69_h8K9wH-vG9Zy-102" target="8AGuU69_h8K9wH-vG9Zy-107" edge="1">
          <mxGeometry width="160" relative="1" as="geometry">
            <mxPoint x="510" y="1400" as="sourcePoint" />
            <mxPoint x="620" y="1135" as="targetPoint" />
          </mxGeometry>
        </mxCell>
        <mxCell id="8AGuU69_h8K9wH-vG9Zy-114" value="&amp;lt;&amp;lt;include&amp;gt;&amp;gt;" style="edgeLabel;html=1;align=center;verticalAlign=middle;resizable=0;points=[];" parent="8AGuU69_h8K9wH-vG9Zy-113" vertex="1" connectable="0">
          <mxGeometry x="0.1496" y="-1" relative="1" as="geometry">
            <mxPoint as="offset" />
          </mxGeometry>
        </mxCell>
        <mxCell id="8AGuU69_h8K9wH-vG9Zy-115" value="Real-time service" style="shape=umlActor;verticalLabelPosition=bottom;verticalAlign=top;html=1;outlineConnect=0;" parent="1" vertex="1">
          <mxGeometry x="830" y="1280" width="30" height="60" as="geometry" />
        </mxCell>
        <mxCell id="8AGuU69_h8K9wH-vG9Zy-116" value="" style="html=1;verticalAlign=bottom;endArrow=block;curved=0;rounded=0;exitX=0;exitY=0.3333333333333333;exitDx=0;exitDy=0;exitPerimeter=0;entryX=1;entryY=0.5;entryDx=0;entryDy=0;" parent="1" source="8AGuU69_h8K9wH-vG9Zy-115" target="8AGuU69_h8K9wH-vG9Zy-105" edge="1">
          <mxGeometry width="80" relative="1" as="geometry">
            <mxPoint x="830" y="910" as="sourcePoint" />
            <mxPoint x="680" y="1305" as="targetPoint" />
          </mxGeometry>
        </mxCell>
        <mxCell id="8AGuU69_h8K9wH-vG9Zy-117" value="" style="html=1;verticalAlign=bottom;endArrow=block;curved=0;rounded=0;exitX=0;exitY=0.3333333333333333;exitDx=0;exitDy=0;exitPerimeter=0;entryX=1;entryY=0.5;entryDx=0;entryDy=0;" parent="1" source="8AGuU69_h8K9wH-vG9Zy-115" target="8AGuU69_h8K9wH-vG9Zy-106" edge="1">
          <mxGeometry width="80" relative="1" as="geometry">
            <mxPoint x="840" y="920" as="sourcePoint" />
            <mxPoint x="690" y="1315" as="targetPoint" />
          </mxGeometry>
        </mxCell>
        <mxCell id="8AGuU69_h8K9wH-vG9Zy-118" value="" style="html=1;verticalAlign=bottom;endArrow=block;curved=0;rounded=0;exitX=0;exitY=0.3333333333333333;exitDx=0;exitDy=0;exitPerimeter=0;entryX=1;entryY=0.5;entryDx=0;entryDy=0;" parent="1" source="8AGuU69_h8K9wH-vG9Zy-115" target="8AGuU69_h8K9wH-vG9Zy-107" edge="1">
          <mxGeometry width="80" relative="1" as="geometry">
            <mxPoint x="850" y="930" as="sourcePoint" />
            <mxPoint x="700" y="1325" as="targetPoint" />
          </mxGeometry>
        </mxCell>
        <mxCell id="8AGuU69_h8K9wH-vG9Zy-119" value="start/join Communite&amp;nbsp;" style="ellipse;whiteSpace=wrap;html=1;" parent="1" vertex="1">
          <mxGeometry x="425" y="1625" width="80" height="50" as="geometry" />
        </mxCell>
        <mxCell id="8AGuU69_h8K9wH-vG9Zy-120" value="get target user" style="ellipse;whiteSpace=wrap;html=1;" parent="1" vertex="1">
          <mxGeometry x="580" y="1620" width="80" height="50" as="geometry" />
        </mxCell>
        <mxCell id="8AGuU69_h8K9wH-vG9Zy-121" value="get target chat id" style="ellipse;whiteSpace=wrap;html=1;" parent="1" vertex="1">
          <mxGeometry x="580" y="1710" width="80" height="50" as="geometry" />
        </mxCell>
        <mxCell id="8AGuU69_h8K9wH-vG9Zy-122" value="" style="endArrow=block;dashed=1;endFill=0;endSize=12;html=1;rounded=0;entryX=0;entryY=0.5;entryDx=0;entryDy=0;exitX=1;exitY=0.5;exitDx=0;exitDy=0;" parent="1" source="8AGuU69_h8K9wH-vG9Zy-119" target="8AGuU69_h8K9wH-vG9Zy-121" edge="1">
          <mxGeometry width="160" relative="1" as="geometry">
            <mxPoint x="503" y="1433" as="sourcePoint" />
            <mxPoint x="580" y="1535" as="targetPoint" />
          </mxGeometry>
        </mxCell>
        <mxCell id="8AGuU69_h8K9wH-vG9Zy-123" value="&amp;lt;&amp;lt;include&amp;gt;&amp;gt;" style="edgeLabel;html=1;align=center;verticalAlign=middle;resizable=0;points=[];" parent="8AGuU69_h8K9wH-vG9Zy-122" vertex="1" connectable="0">
          <mxGeometry x="0.1496" y="-1" relative="1" as="geometry">
            <mxPoint as="offset" />
          </mxGeometry>
        </mxCell>
        <mxCell id="8AGuU69_h8K9wH-vG9Zy-124" value="" style="endArrow=block;dashed=1;endFill=0;endSize=12;html=1;rounded=0;entryX=0;entryY=0.5;entryDx=0;entryDy=0;exitX=0.972;exitY=0.27;exitDx=0;exitDy=0;exitPerimeter=0;" parent="1" edge="1">
          <mxGeometry width="160" relative="1" as="geometry">
            <mxPoint x="501.76" y="1638.5000000000005" as="sourcePoint" />
            <mxPoint x="578.9999999999998" y="1645" as="targetPoint" />
          </mxGeometry>
        </mxCell>
        <mxCell id="8AGuU69_h8K9wH-vG9Zy-125" value="&amp;lt;&amp;lt;extend&amp;gt;&amp;gt;" style="edgeLabel;html=1;align=center;verticalAlign=middle;resizable=0;points=[];" parent="8AGuU69_h8K9wH-vG9Zy-124" vertex="1" connectable="0">
          <mxGeometry x="0.1496" y="-1" relative="1" as="geometry">
            <mxPoint as="offset" />
          </mxGeometry>
        </mxCell>
        <mxCell id="8AGuU69_h8K9wH-vG9Zy-126" value="" style="html=1;verticalAlign=bottom;endArrow=block;curved=0;rounded=0;exitX=1;exitY=0.3333333333333333;exitDx=0;exitDy=0;exitPerimeter=0;entryX=0;entryY=0.5;entryDx=0;entryDy=0;" parent="1" source="8AGuU69_h8K9wH-vG9Zy-3" target="8AGuU69_h8K9wH-vG9Zy-119" edge="1">
          <mxGeometry width="80" relative="1" as="geometry">
            <mxPoint x="300" y="1430" as="sourcePoint" />
            <mxPoint x="435" y="1415" as="targetPoint" />
          </mxGeometry>
        </mxCell>
        <mxCell id="8AGuU69_h8K9wH-vG9Zy-128" value="" style="html=1;verticalAlign=bottom;endArrow=block;curved=0;rounded=0;exitX=0;exitY=0.3333333333333333;exitDx=0;exitDy=0;exitPerimeter=0;entryX=1;entryY=0.5;entryDx=0;entryDy=0;" parent="1" source="8AGuU69_h8K9wH-vG9Zy-115" target="8AGuU69_h8K9wH-vG9Zy-121" edge="1">
          <mxGeometry width="80" relative="1" as="geometry">
            <mxPoint x="860" y="1440" as="sourcePoint" />
            <mxPoint x="670" y="1545" as="targetPoint" />
          </mxGeometry>
        </mxCell>
        <mxCell id="8AGuU69_h8K9wH-vG9Zy-129" value="User Service" style="shape=umlActor;verticalLabelPosition=bottom;verticalAlign=top;html=1;outlineConnect=0;" parent="1" vertex="1">
          <mxGeometry x="860" y="1470" width="30" height="60" as="geometry" />
        </mxCell>
        <mxCell id="8AGuU69_h8K9wH-vG9Zy-130" value="" style="html=1;verticalAlign=bottom;endArrow=block;curved=0;rounded=0;exitX=0;exitY=0.3333333333333333;exitDx=0;exitDy=0;exitPerimeter=0;entryX=1;entryY=0.5;entryDx=0;entryDy=0;" parent="1" source="8AGuU69_h8K9wH-vG9Zy-129" target="8AGuU69_h8K9wH-vG9Zy-120" edge="1">
          <mxGeometry width="80" relative="1" as="geometry">
            <mxPoint x="840" y="1310" as="sourcePoint" />
            <mxPoint x="670" y="1745" as="targetPoint" />
          </mxGeometry>
        </mxCell>
        <mxCell id="8AGuU69_h8K9wH-vG9Zy-131" value="search by uploader&lt;span style=&quot;color: rgba(0, 0, 0, 0); font-family: monospace; font-size: 0px; text-align: start; text-wrap-mode: nowrap;&quot;&gt;%3CmxGraphModel%3E%3Croot%3E%3CmxCell%20id%3D%220%22%2F%3E%3CmxCell%20id%3D%221%22%20parent%3D%220%22%2F%3E%3CmxCell%20id%3D%222%22%20value%3D%22confirm%20order%20validation%26lt%3Bspan%20style%3D%26quot%3Bcolor%3A%20rgba(0%2C%200%2C%200%2C%200)%3B%20font-family%3A%20monospace%3B%20font-size%3A%200px%3B%20text-align%3A%20start%3B%20text-wrap-mode%3A%20nowrap%3B%26quot%3B%26gt%3B%253CmxGraphModel%253E%253Croot%253E%253CmxCell%2520id%253D%25220%2522%252F%253E%253CmxCell%2520id%253D%25221%2522%2520parent%253D%25220%2522%252F%253E%253CmxCell%2520id%253D%25222%2522%2520value%253D%2522make%2520an%2520order%2522%2520style%253D%2522ellipse%253BwhiteSpace%253Dwrap%253Bhtml%253D1%253B%2522%2520vertex%253D%25221%2522%2520parent%253D%25221%2522%253E%253CmxGeometry%2520x%253D%2522380%2522%2520y%253D%2522820%2522%2520width%253D%252280%2522%2520height%253D%252250%2522%2520as%253D%2522geometry%2522%252F%253E%253C%252FmxCell%253E%253C%252Froot%253E%253C%252FmxGraphModel%253Eorder%26amp%3Bnbsp%3B%26lt%3B%2Fspan%26gt%3B%22%20style%3D%22ellipse%3BwhiteSpace%3Dwrap%3Bhtml%3D1%3B%22%20vertex%3D%221%22%20parent%3D%221%22%3E%3CmxGeometry%20x%3D%22580%22%20y%3D%22990%22%20width%3D%2280%22%20height%3D%2250%22%20as%3D%22geometry%22%2F%3E%3C%2FmxCell%3E%3C%2Froot%3E%3C%2FmxGraphModel&lt;/span&gt;" style="ellipse;whiteSpace=wrap;html=1;" parent="1" vertex="1">
          <mxGeometry x="590" y="1300" width="80" height="50" as="geometry" />
        </mxCell>
        <mxCell id="8AGuU69_h8K9wH-vG9Zy-132" value="" style="endArrow=block;dashed=1;endFill=0;endSize=12;html=1;rounded=0;exitX=1;exitY=0.5;exitDx=0;exitDy=0;entryX=0;entryY=0.5;entryDx=0;entryDy=0;" parent="1" source="8AGuU69_h8K9wH-vG9Zy-83" target="8AGuU69_h8K9wH-vG9Zy-131" edge="1">
          <mxGeometry width="160" relative="1" as="geometry">
            <mxPoint x="500" y="1105" as="sourcePoint" />
            <mxPoint x="600" y="1275" as="targetPoint" />
          </mxGeometry>
        </mxCell>
        <mxCell id="8AGuU69_h8K9wH-vG9Zy-133" value="&amp;lt;&amp;lt;extend&amp;gt;&amp;gt;" style="edgeLabel;html=1;align=center;verticalAlign=middle;resizable=0;points=[];" parent="8AGuU69_h8K9wH-vG9Zy-132" vertex="1" connectable="0">
          <mxGeometry x="0.1496" y="-1" relative="1" as="geometry">
            <mxPoint as="offset" />
          </mxGeometry>
        </mxCell>
        <mxCell id="8AGuU69_h8K9wH-vG9Zy-134" value="" style="html=1;verticalAlign=bottom;endArrow=block;curved=0;rounded=0;exitX=0;exitY=0.3333333333333333;exitDx=0;exitDy=0;exitPerimeter=0;entryX=0.925;entryY=0.695;entryDx=0;entryDy=0;entryPerimeter=0;" parent="1" source="8AGuU69_h8K9wH-vG9Zy-129" target="8AGuU69_h8K9wH-vG9Zy-131" edge="1">
          <mxGeometry width="80" relative="1" as="geometry">
            <mxPoint x="870" y="1500" as="sourcePoint" />
            <mxPoint x="670" y="1655" as="targetPoint" />
          </mxGeometry>
        </mxCell>
      </root>
    </mxGraphModel>
  </diagram>
</mxfile>
